<?xml version="1.0" encoding="UTF-8"?>
<svg xmlns="http://www.w3.org/2000/svg" xmlns:xlink="http://www.w3.org/1999/xlink" viewBox="0 0 511.07 311.84">
  <defs>
    <linearGradient id="linear-gradient" x1="193.27" y1="124.6" x2="495.14" y2="124.6" gradientUnits="userSpaceOnUse">
      <stop offset="0" stop-color="#2484c6" stop-opacity="0"/>
      <stop offset="1" stop-color="#545aa8"/>
    </linearGradient>
    <linearGradient id="Fading_Sky" data-name="Fading Sky" x1="239.79" y1="130.65" x2="274.44" y2="130.65" gradientUnits="userSpaceOnUse">
      <stop offset="0" stop-color="#2484c6"/>
      <stop offset="1" stop-color="#2484c6" stop-opacity="0"/>
    </linearGradient>
    <linearGradient id="Fading_Sky-2" data-name="Fading Sky" x1="284.24" y1="129.95" x2="316.94" y2="129.95" xlink:href="#Fading_Sky"/>
    <linearGradient id="Fading_Sky-3" data-name="Fading Sky" x1="329.62" y1="128.35" x2="359.63" y2="128.35" xlink:href="#Fading_Sky"/>
    <linearGradient id="Fading_Sky-4" data-name="Fading Sky" x1="374.72" y1="127.27" x2="402.47" y2="127.27" xlink:href="#Fading_Sky"/>
    <linearGradient id="Fading_Sky-5" data-name="Fading Sky" x1="419.45" y1="126.87" x2="445.19" y2="126.87" xlink:href="#Fading_Sky"/>
  </defs>
  <g id="Layer_2" data-name="Layer 2">
    <path d="m193.27,46.94c9.67-.13,19.35-.26,29.02-.38,2.03,2.66,4.07,5.31,6.1,7.97,88.92,5.34,177.83,10.68,266.75,16.02-8.12,27.64-16.23,55.29-24.35,82.93-1.26,3.65-3.72,9.25-8.7,14.3-8.35,8.46-19.05,10.56-24.61,11.49-18.54,3.08-96.87,12.5-204.02,23.35-4.77.17-12.82-.32-19.4-5.54-6.8-5.39-8.91-13.36-9.99-18.66-3.59-17.71-7.89-66.31-10.81-131.47Z" style="fill: url(#linear-gradient);"/>
  </g>
  <g id="Layer_1" data-name="Layer 1">
    <g>
      <path d="m511.07,61v6c-3.34,11.77-6.78,23.52-9.99,35.33-2.29,8.42-4.52,16.85-6.75,25.29-2.49,9.39-4.97,18.78-7.51,28.15-6.02,22.15-23.42,36.65-46.34,39.31-22.48,2.61-44.95,5.3-67.42,8.01-15.61,1.87-31.22,3.75-46.83,5.61-28.69,3.4-57.38,6.85-86.1,10.05-10.73,1.19-21.24.1-30.88-5.45-4.97-2.86-8.87-6.3-11.9-10.21l-.02-.03-.07-.09-.09-.1c-5.97-7.81-8.55-17.5-9.34-28.33-3.12-42.34-10.42-133.96-10.67-137.45-.12-1.66-.23-3.32-.32-4.98-.63-11.27-6.32-16.92-17.73-17.09-10.31-.15-20.62,0-30.93-.05-5.74-.02-9.23-2.9-9.22-7.49,0-4.58,3.51-7.44,9.26-7.45,10.64-.03,21.28-.06,31.93,0,17.81.1,30.14,11.54,31.6,29.27,0,.1,0-.02.82,9.93,0,.03.67,8.08.7,8.49,0,.08.61,7.33.61,7.36,0,.09,1.04,12.54,1.05,12.71,0,0,.16,1.98.16,1.98,2.6,31.44,3.89,47.17,3.95,47.97.82,11.89,2.81,38.99,5.04,61.63,1.45,14.72,11.36,21.83,22.23,23.72,3.39.6,6.89.68,10.24.32.98-.1,1.95-.21,2.93-.32,21.27-2.3,42.51-4.91,63.74-7.44,21.22-2.54,42.43-5.23,63.66-7.73,12.56-1.48,25.12-3.02,37.69-4.44,8.67-.98,17.35-1.9,26.04-2.7,15.25-1.41,28.93-5.29,37.1-19.47,2.67-4.64,4.17-10.08,5.6-15.32.58-2.12,1.16-4.24,1.74-6.37,5.82-21.41,11.49-42.88,17.2-64.32.3-1.1.48-2.23.84-3.94-2.82-.38-5.38-.91-7.95-1.06-31.69-1.78-63.37-3.46-95.06-5.26-40.31-2.29-80.61-4.63-120.91-7.01-13.6-.81-27.19-1.71-40.78-2.71-5.57-.41-4.41-15.49.84-15.22,6.84.35,13.72-.76,32.15,1.74,9.3,1.26,18.73,1.07,28.1,1.62,25.12,1.49,51.67,3.12,76.15,4.57,32.52,1.92,65.05,3.8,97.57,5.71,10.38.6,20.75,1.34,31.13,1.84,2.4.13,4.81.23,7.21.32,4.29.15,7.28,1.66,9.53,5.1Z"/>
      <path d="m425.88,248.47c-13.45,1.45-23.79,8.12-30.88,19.49-2.03,3.25-4,4.46-7.82,4.46-61.21-.13-122.42-.09-183.63-.1-1.78,0-3.56-.16-5.26-.23-.64-2.7-.49-5.53-1.82-7.08-6.68-7.75-3.29-14.01,1.93-20.65,2.84-3.61,1.63-8.26-1.73-10.58-3.7-2.54-7.79-1.71-10.8,2.44-2.44,3.36-4.53,6.99-7.06,10.28-.82,1.05-2.58,2.02-3.87,1.97-18.5-.72-35.88,11.96-40.61,29.81-4.98,18.82,8.94,35.69,27.59,33.34,13.38-1.68,23.73-8.35,30.67-19.86,1.93-3.19,3.95-4.09,7.48-4.08,61.21.1,122.42.07,183.63.07h5.24c3.31,14.49,9.36,21.19,20.64,23.29,21.39,3.97,44.56-15.39,44.52-37.21-.03-15.45-12.87-27.02-28.22-25.36Zm-243.66,27c-1.31,10.31-12.53,20.21-22.82,20.13-7.04-.06-10.87-4.2-10.17-11,1.09-10.5,13.19-20.79,23.74-20.17,6.25.37,10.03,4.88,9.25,11.04Zm230.69,20.02c-4.33-.74-7.08-3.19-7.47-7.95-.99-12.02,13.15-25.09,25.05-23.04,5.01.87,7.6,4.35,7.46,10.03-.29,11.5-13.78,22.88-25.04,20.96Z"/>
      <path d="m150.97,47.69c-.06,4.63-3.15,7.32-8.72,7.33h-2.69c-21.21.04-42.43.02-63.64.02-22.27,0-44.55-.05-66.82.04-4.34.02-7.55-1.33-8.82-5.65-1.17-4.01,1.49-8.25,5.57-9.2.96-.22,1.99-.19,2.98-.19,43.58-.01,87.15-.02,130.73.01h2.92c5.36.01,8.55,3.01,8.49,7.64Z"/>
      <path d="m152.72,87.54c.07,4.73-3.2,7.54-9.04,7.55-1.37,0-2.75.01-4.12.01-14.41.04-28.8.01-43.21.01-15.61,0-31.22.02-46.83-.01-6.24-.01-9.59-2.77-9.47-7.63.11-4.65,3.46-7.4,9.29-7.41,30.08-.02,60.14-.02,90.22.01h3.94c5.79,0,9.15,2.81,9.22,7.47Z"/>
      <path d="m274.44,95.13c-.23,1.1-.45,2.41-.79,3.69-6.02,22.59-12.03,45.17-18.09,67.75-1.63,6.08-5.43,8.76-10.32,7.51-4.66-1.19-6.51-5.52-4.86-11.72,5.99-22.59,12.01-45.17,18.05-67.75,1.41-5.26,4.94-8.18,8.97-7.62,3.8.53,7,4.14,7.03,8.14Z" style="fill: url(#Fading_Sky);"/>
      <path d="m316.92,99.52c-1.69,6.51-3.54,13.74-5.46,20.95-3.59,13.46-7.22,26.92-10.84,40.37-.34,1.28-.65,2.59-1.15,3.81-1.6,3.95-5.42,5.96-9.17,4.9-4.21-1.18-6.93-4.87-5.82-9.1,5.67-21.66,11.46-43.29,17.45-64.87,1.14-4.11,4.52-6.28,8.91-5.29,4.28.97,6.31,4.01,6.08,9.22Z" style="fill: url(#Fading_Sky-2);"/>
      <path d="m154.97,127.8c-.04,4.77-3.13,7.41-9.15,7.46-2.09.02-4.18.03-6.26.04-7.37.03-14.74-.01-22.1-.01-9.29,0-18.58.05-27.87-.02-6.14-.05-9.66-2.94-9.59-7.63.07-4.75,3.59-7.52,9.74-7.53,16.61-.02,33.21-.02,49.82,0h5.92c6.18.01,9.53,2.78,9.49,7.69Z"/>
      <path d="m359.62,102.85c-1.12,4.18-2.58,9.62-4.02,15.05-3.44,12.97-6.85,25.95-10.33,38.91-1.09,4.08-3.56,6.87-8.04,6.8-3.92-.06-6.57-2.27-7.47-6.11-.32-1.36-.07-2.96.3-4.35,4.68-17.78,9.38-35.56,14.17-53.31,1.23-4.58,4.81-7.21,8.59-6.72,4.17.54,6.93,3.92,6.8,9.72Z" style="fill: url(#Fading_Sky-3);"/>
      <path d="m402.47,105.54c-.75,2.75-1.8,6.57-2.82,10.4-3.09,11.68-6.12,23.37-9.27,35.03-1.5,5.57-5.64,8.33-10.16,7.02-4.37-1.27-6.48-5.43-5.08-10.81,3.89-14.88,7.87-29.75,11.96-44.58,1.28-4.65,4.8-6.94,8.77-6.26,4.07.7,6.66,3.86,6.59,9.2Z" style="fill: url(#Fading_Sky-4);"/>
      <path d="m445.19,108.33c-.68,2.78-1.35,5.68-2.12,8.55-2.68,10.07-5.34,20.14-8.13,30.18-1.15,4.12-3.81,6.5-8.36,6.22-3.85-.24-6.05-2.46-6.96-6-.31-1.2-.18-2.63.13-3.86,3.15-12.17,6.29-24.34,9.62-36.46,1.35-4.94,4.81-7.14,9.16-6.4,4.29.73,5.99,3.7,6.64,7.77Z" style="fill: url(#Fading_Sky-5);"/>
      <path d="m159.4,295.61c-7.04-.06-10.87-4.2-10.16-11,1.08-10.5,13.19-20.79,23.74-20.17,6.25.37,10.03,4.88,9.25,11.04-1.31,10.31-12.54,20.21-22.82,20.13Z" style="fill: #35459c;"/>
      <path d="m437.95,274.54c-.28,11.5-13.78,22.87-25.04,20.95-4.33-.74-7.08-3.18-7.47-7.94-.99-12.03,13.15-25.1,25.05-23.04,5.01.87,7.6,4.35,7.46,10.03Z" style="fill: #35459c;"/>
    </g>
  </g>
</svg>