<?xml version="1.0" encoding="UTF-8"?><svg id="Layer_1" xmlns="http://www.w3.org/2000/svg" width="24" height="24" viewBox="0 0 24 24"><path d="m0,.74c.09-.13.16-.28.26-.4C.46.11.71,0,1,0c1.01,0,2.03,0,3.04,0,.52,0,.85.28,1.05.86.29.89.58,1.78.86,2.66.03.1.07.2.11.29.11.2.27.31.5.33.11,0,.22,0,.33,0,5.28,0,10.56,0,15.84,0,.13,0,.27,0,.4.03.66.13,1.02.74.82,1.39-.21.68-.44,1.36-.66,2.04-.67,2.05-1.33,4.11-2,6.16-.2.62-.51.85-1.14.85-3.48,0-6.96,0-10.45,0-.14,0-.29,0-.42.04-.25.05-.41.21-.48.46-.08.3-.15.6-.21.9-.07.33.13.6.46.63.1,0,.21,0,.31,0,3.89,0,7.79,0,11.68,0,.17,0,.35.01.52.06.43.11.75.55.76,1.01,0,.46-.32.91-.77,1.03-.14.04-.28.05-.42.05-3.98,0-7.96,0-11.94,0-1.54,0-2.74-1.26-2.68-2.83.01-.34.09-.7.2-1.03.29-.91.21-1.77-.09-2.67-1.06-3.16-2.07-6.34-3.1-9.52-.17-.51-.36-.66-.89-.66-.47,0-.95-.02-1.42,0C.62,2.16.22,1.93,0,1.38,0,1.17,0,.96,0,.74Z"/><path d="m7.69,24c-.41-.13-.8-.31-1.09-.65-.54-.63-.69-1.35-.42-2.13.26-.77.82-1.23,1.61-1.38,1.03-.19,2.33.54,2.37,2.07.02.95-.58,1.69-1.32,1.98-.1.04-.19.08-.29.11h-.85Z"/><path d="m19.85,24c-.41-.13-.8-.31-1.09-.65-.54-.63-.69-1.35-.42-2.13.26-.77.82-1.23,1.61-1.38,1.03-.19,2.33.54,2.37,2.07.02.95-.58,1.69-1.32,1.98-.1.04-.19.08-.29.11h-.85Z"/></svg>