<?xml version="1.0" encoding="UTF-8"?><svg id="Layer_2" xmlns="http://www.w3.org/2000/svg" width="23.81" height="23.97" viewBox="0 0 23.81 23.97"><g id="Layer_1-2"><path d="m5.09,5.81c0-.26,0-.47,0-.69.05-1.81,1-3.21,2.94-4.07,3.3-1.48,7.34.14,8.05,3.16.09.36.08.74.12,1.11.01.15,0,.3,0,.47.14,0,.24.02.35.02.64,0,1.27,0,1.91,0,1.23.03,2.29.91,2.3,1.92.01,2.14,0,4.27,0,6.41,0,.06-.01.13-.02.2-3.13-.88-5.85-.41-7.81,1.83-1.77,2.04-1.55,4.17.14,6.26-.1,0-.18.02-.27.02-2.66,0-5.31-.01-7.97,0-1.91.01-3.89-1.12-4.28-3-.05-.23-.06-.46-.06-.69,0-3.59,0-7.18,0-10.77,0-.73.28-1.35,1.02-1.8.4-.24.84-.39,1.35-.39.62,0,1.23,0,1.85,0,.11,0,.22,0,.38,0Zm9.23-.02c.22-1.28-.18-2.5-1.63-3.3-1.36-.75-3.09-.68-4.38.17-1.26.82-1.56,1.96-1.33,3.13h7.35Zm-3.69,8.28c.22-.01.49,0,.75-.04,1.75-.23,3.1-.97,4-2.22.5-.69.74-1.45.73-2.26,0-.38-.36-.66-.81-.67-.48,0-.83.26-.86.65-.01.15-.03.3-.05.45-.32,2.03-2.95,3.32-5.31,2.43-1.44-.54-2.18-1.51-2.25-2.82-.02-.42-.37-.71-.86-.71-.48,0-.83.29-.81.71.02.37.06.75.17,1.11.53,1.77,2.52,3.35,5.3,3.37Z" fill="none" stroke="#fff" stroke-miterlimit="10" stroke-width=".99"/><path d="m21.68,21.15c.1.09.18.16.27.23.53.44,1.06.87,1.58,1.31.24.21.36.46.24.75-.12.29-.36.46-.71.51-.34.05-.61-.06-.84-.26-.44-.36-.89-.73-1.33-1.09-.1-.08-.21-.16-.3-.25-.13-.13-.25-.13-.41-.04-.85.44-1.79.65-2.79.62-2.51-.08-4.41-1.65-4.75-3.49-.4-2.16,1.34-4.18,3.86-4.63,2.97-.53,5.58,1.14,6.01,3.34.19.99-.03,1.92-.65,2.78-.05.06-.09.13-.16.22Zm-4.12-4.95c-1.62,0-3.19,1.03-3.19,2.63,0,1.46,1.37,2.6,3.19,2.61,1.87,0,3.19-1.22,3.19-2.63,0-1.43-1.44-2.61-3.19-2.61Z" fill="#fff"/><path d="m20.55,13.5c-.1-.04-.2-.08-.3-.12" fill="#1d4ed8" stroke="#000" stroke-linecap="round" stroke-linejoin="round" stroke-width=".15"/></g></svg>