<?xml version="1.0" encoding="UTF-8"?><svg id="Layer_2" xmlns="http://www.w3.org/2000/svg" width="160.87" height="279.94" viewBox="0 0 160.87 279.94"><g id="Layer_1-2"><path d="m100,278.41c0-3.02,0-5.97,0-8.91-.01-7.02-.03-14.03-.04-21.05,0-1.85-.01-1.84-1.95-1.85-7.74-.07-15.47-.15-23.21-.23-.51,0-1.02,0-1.68,0-.03.47-.09.88-.09,1.28.06,10.05.13,20.11.19,30.16,0,.3-.01.6,0,.9.02.65-.1,1.38-.88,1.22-.46-.09-1.1-.77-1.13-1.22-.14-1.74-.07-3.5-.07-5.26.01-8.64.02-17.28.06-25.93,0-.91-.3-1.15-1.18-1.19-8.29-.3-16.57-.61-24.85-.97-7.21-.32-14.43-.66-21.64-1.09-3.24-.19-6.46-.64-9.69-.96-.81-.08-1.28-.42-1.58-1.22-.73-1.96-1.63-3.85-2.36-5.81-.44-1.19-1.2-1.88-2.4-2.24-2-.6-3.96-1.36-5.97-1.92C.38,231.78,0,231.21,0,230.02c.03-19.21,0-38.42,0-57.63C0,136.31,0,100.24,0,64.17c0-2.31.05-4.62,0-6.93-.02-.82.33-1.2,1.06-1.31.8-.12,1.61-.26,2.42-.29,9.39-.39,18.79-.78,28.18-1.1,1.1-.04,1.3-.41,1.36-1.41.43-6.44.61-12.92,1.51-19.29.8-5.72,2.09-11.4,4.76-16.68,4.19-8.28,10.55-13.83,19.69-15.72C63.1.59,67.36-.09,71.54,0c6.66.16,13.3.99,19.25,4.52,3.56,2.11,6.63,4.76,8.79,8.26,1.56,2.53,2.66,5.33,4.06,7.96.46.86,1.08,1.78,1.88,2.28,4.5,2.81,7.68,6.75,10.05,11.4,3.05,5.97,4.32,12.47,5.35,19.02.13.82.44,1.06,1.22,1.09,7.9.33,15.79.71,23.69,1.03,1.03.04,1.22.55,1.22,1.37-.04,3.72-.04,7.44-.13,11.16-.02.96.24,1.43,1.17,1.8,3.33,1.31,6.55,2.97,9.95,4.05,2.5.8,2.9,2.02,2.84,4.51-.21,9.02-.03,18.05-.03,27.08.01,43.77.02,87.53.02,131.3,0,1.54-.07,3.08-.02,4.62.04,1.17-.43,1.72-1.59,1.85-4.25.45-8.48,1.04-12.74,1.39-5.58.47-11.16.9-16.75,1.1-8.58.31-17.17.43-25.76.61-1.8.04-1.8,0-1.8,1.83,0,9.37.02,18.74.02,28.11,0,1.8-.34,2.14-2.21,2.04Zm58.65-201.75c-1.01.21-1.79.44-2.59.52-7.31.7-14.62,1.41-21.94,2.04-3.41.29-6.82.42-10.24.59-1.09.05-1.53.45-1.52,1.63.02,4.36-.06,8.73-.15,13.09-.02.86.24,1.37,1.06,1.65,1.06.37,1.85,1,2.15,2.17.68,2.61-1.29,4.89-4.36,4.97-2.12.06-3.38-.76-3.93-2.57-.47-1.55.35-3.41,2.04-4.27.95-.49,1.21-1.13,1.19-2.15-.05-4.11-.04-8.21-.02-12.32.01-1.92.05-1.91-1.92-1.84-7.6.28-15.2.72-22.81.79-8.93.09-17.87-.06-26.8-.28-5.29-.13-10.58-.62-15.87-.91-1.34-.07-2.69-.01-4.11-.01,0,4.76.06,9.42-.04,14.08-.03,1.35.37,2.06,1.56,2.65,1.84.92,2.27,2.73,1.32,4.56-.8,1.55-2.17,2.13-3.76,2.29-2.15.22-3.81-.8-4.34-2.59-.52-1.72.18-3.17,2.16-4.25.72-.39,1.07-.82,1.05-1.68-.1-4.79-.16-9.58-.19-14.38,0-.9-.35-1.21-1.21-1.23-1.45-.04-2.91-.1-4.35-.24-7.61-.75-15.21-1.53-22.81-2.3-1.13-.11-2.26-.25-3.42-.39-.06.25-.13.41-.13.57,0,6.2,0,12.41,0,18.61,0,46.3,0,92.6-.01,138.9,0,2.27-.13,4.53-.21,6.8-.04.97.35,1.39,1.37,1.35,1.32-.05,2.65-.01,3.97.06,10.96.65,21.92,1.44,32.89,1.96,8.24.38,16.49.44,24.74.6,6.54.13,13.08.32,19.62.26,11.07-.1,22.14-.36,33.21-.58,2.78-.06,5.56-.11,8.33-.34,6-.51,11.99-1.14,17.99-1.7,2.03-.19,2.03-.16,2.06-2.18,0-.26,0-.51,0-.77.01-13.22.03-26.44.04-39.66,0-40.65,0-81.3,0-121.95,0-.46,0-.93,0-1.55ZM2.12,57.54c0,1.23,0,2.29,0,3.35,0,56.05,0,112.09,0,168.14,0,.39-.09.8.03,1.15.14.38.4.88.72.99,1.68.61,3.39,1.14,5.11,1.67,1.88.58,3.65,1.28,4.26,3.51.15-.44.22-.85.22-1.25,0-1.24-.07-2.48-.07-3.72,0-27.38,0-54.76,0-82.14,0-23.96,0-47.92.07-71.88,0-1.2.49-2.5,1.06-3.58,1.66-3.13,3.48-6.17,5.25-9.25.43-.74.55-1.26-.52-1.61-4.94-1.63-9.86-3.34-14.79-5.01-.39-.13-.8-.21-1.36-.36Zm47.63-3.45c.7,0,1.12,0,1.55,0,16.25-.01,32.5-.03,48.74-.04,1.88,0,3.76,0,5.64.03.85.01,1.14-.38,1.09-1.18-.06-.98-.1-1.97-.12-2.95-.18-8.67-1.47-17.19-3.6-25.59-.26-1.04-.77-1.81-1.74-2.22-1.17-.51-2.33-1.11-3.56-1.42-7.06-1.8-14.17-2.36-21.46-1.29-4.09.6-7.9,1.65-11.45,3.76-4.51,2.68-7.75,6.5-10.12,11.12-2.58,5.05-3.56,10.58-4.58,16.08-.22,1.16-.26,2.35-.41,3.71Zm34.61,1.11s0,.1,0,.14c-11.15,0-22.31.02-33.46-.02-1.1,0-1.28.48-1.31,1.38-.24,6.62-.5,13.24-.73,19.86-.06,1.72,0,1.76,1.73,1.82,9.91.37,19.81.99,29.72,1,12.99.03,25.97-.44,38.96-.66.99-.02,1.11-.45,1.07-1.27-.36-6.87-.7-13.74-1.02-20.61-.03-.7-.3-1-.99-1.02-1.67-.05-3.33-.17-4.99-.19-9.66-.16-19.31-.29-28.97-.44Zm17.14-34.52c0-.25.01-.34,0-.42-.03-.13-.06-.25-.11-.37-4.48-10.87-12.57-17.01-24.25-18.23-5.58-.58-11.2-.61-16.72.58-5.42,1.17-10.42,3.21-14.35,7.37-4.91,5.19-7.39,11.6-8.71,18.4-1,5.18-1.32,10.51-1.8,15.78-.28,3.06-.31,6.15-.43,9.22-.03.68-.1,1.37,1.01,1.33,3.59-.14,7.18-.22,10.77-.27.85-.01,1.23-.27,1.31-1.14.39-4.31,1.29-8.5,2.7-12.61,3.01-8.77,8.05-15.75,16.9-19.26,2.78-1.1,5.84-1.51,8.77-2.25,6.2-1.56,12.37-1.01,18.52.24,2.12.43,4.19,1.06,6.4,1.64ZM5.64,56.86c.41.27.5.37.61.41,4.66,1.52,9.32,3.01,13.97,4.55,1.86.62,1.87.74.83,2.49-1.84,3.08-3.71,6.14-5.52,9.23-.67,1.14-.49,1.44.73,1.57,9.21.94,18.42,1.89,27.64,2.82.83.08,1.67.09,2.65.14,0-1-.03-1.81,0-2.61.29-6.1.54-12.2.9-18.3.11-1.8.22-1.82-1.57-1.75-8.71.32-17.41.66-26.12.96-4.1.14-8.2.22-12.3.34-.5.01-1,.08-1.83.16Zm150.7,18.49c.03-.13.06-.27.09-.4-.41-.19-.8-.39-1.22-.56-5.17-2.02-10.35-4-15.5-6.04-4.24-1.68-8.46-3.44-12.67-5.19-.5-.21-.94-.58-1.41-.88.47-.37.89-.9,1.42-1.07,3.29-1.06,6.6-2.03,9.91-3.04,1.29-.39,2.58-.78,4.11-1.24-.39-.16-.5-.23-.61-.24-5.89-.27-11.78-.52-17.67-.81-1.02-.05-1.44.15-1.33,1.33.34,3.62.62,7.24.8,10.87.15,2.95.16,5.9.15,8.85,0,1.18.25,1.75,1.58,1.53.96-.16,1.97-.03,2.94-.12,7.69-.73,15.39-1.48,23.08-2.24,2.11-.21,4.22-.5,6.33-.76Zm-51.06-50.69c-.1.06-.21.12-.31.18.19.68.47,1.35.57,2.04.87,5.91,1.78,11.81,2.52,17.73.35,2.83.37,5.71.54,8.56.03.58.03,1.03.9,1.03,2.64,0,5.29.11,7.93.21,1.57.06,1.63.05,1.47-1.49-.41-4.04-1.34-7.96-2.58-11.84-1.3-4.08-3.17-7.82-5.67-11.25-1.48-2.02-3.19-3.86-5.36-5.17Zm39.65,43.76v-11.23c-5.1,2.06-10.38,2.94-15.62,4.99,5.45,2.18,10.49,4.19,15.62,6.24Zm-25.84,30.84c-.01,1.61,1.15,3.09,2.43,3.09,1.05,0,2.08-1.22,2.1-2.49.02-1.34-1.22-2.95-2.3-2.99-1.33-.06-2.21.89-2.22,2.39Zm-69.12.57c.03-1.51-1.26-3.08-2.41-2.96-1.18.13-2.11,1.33-2,2.57.13,1.41,1.38,2.95,2.42,2.97,1.04.02,1.97-1.19,1.99-2.58Z"/><path d="m122.02,202.41c-.77,2.31-1.55,2.35-2.48,1.08-3.87-5.28-8.34-8.99-13.06-12.1-4.43-2.92-9.1-4.23-13.81-5.2-7.36-1.51-14.57.06-21.53,3.76-6.3,3.35-12,8.45-16.77,15.82-.78,1.2-1.55,2.78-3.28,2.21,7.87-12.99,17.57-20.33,28.4-23.31,15.77-4.34,29.96,2.23,42.53,17.73Z"/><path d="m62.07,147.94c-.03,2.78-2.77,5.31-5.66,5.22-2.99-.09-5.41-2.68-5.32-5.72.07-2.58,2.93-5.29,5.55-5.26,2.73.03,5.46,2.93,5.43,5.76Z"/><path d="m118.17,147.68c.04,3.13-2.91,6.18-6.02,6.25-3.21.07-6.33-2.99-6.4-6.27-.07-3.2,2.87-6.18,6.15-6.25,3.42-.07,6.22,2.73,6.26,6.26Z"/></g></svg>