<?xml version="1.0" encoding="UTF-8"?><svg id="Layer_1" xmlns="http://www.w3.org/2000/svg" width="24" height="24" viewBox="0 0 24 24"><path d="m5.43,7.99c0-.55,0-1.07,0-1.58,0-1.27.35-2.45,1.08-3.51C7.63,1.27,9.19.31,11.19.05c3.41-.43,6.52,1.79,7.22,5,.11.49.13,1,.16,1.51.02.37,0,.75,0,1.12,0,.09,0,.18.01.3.11,0,.2,0,.29,0,.87,0,1.74.02,2.61,0,1.13-.03,2.42.79,2.5,2.33.02.4-.08.81-.15,1.21-.26,1.57-.53,3.15-.8,4.72-.27,1.55-.53,3.1-.8,4.64-.07.41-.13.82-.22,1.23-.25,1.11-1.23,1.88-2.39,1.88-5.09,0-10.18,0-15.26,0-1.19,0-2.21-.83-2.42-1.98-.28-1.6-.55-3.21-.82-4.82-.28-1.65-.57-3.29-.85-4.94-.09-.51-.18-1.01-.26-1.52-.22-1.42.93-2.74,2.41-2.75.89,0,1.79,0,2.68,0,.09,0,.18,0,.32,0Zm6.7,4.11s-.05,0-.05,0c-.06-.04-.12-.09-.19-.13-.71-.51-1.51-.69-2.37-.52-1.43.28-2.19,1.3-2.27,2.64-.09,1.48.42,2.78,1.36,3.92.83,1,1.87,1.77,2.96,2.47.36.23.72.24,1.07,0,.57-.41,1.16-.8,1.7-1.24.85-.69,1.6-1.47,2.06-2.48.47-1.01.72-2.06.48-3.17-.19-.88-.66-1.57-1.53-1.93-1.06-.45-2.07-.35-3.02.3-.08.05-.15.11-.2.15Zm4.75-4.12c0-.1.01-.18.01-.26,0-.47.02-.93,0-1.4-.02-.35-.05-.7-.14-1.03-.65-2.61-3.32-4.17-5.98-3.5-2.22.56-3.6,2.5-3.64,4.43,0,.52,0,1.03,0,1.55,0,.07.02.14.03.22h9.72Z"/></svg>