<?xml version="1.0" encoding="UTF-8"?><svg id="Layer_1" xmlns="http://www.w3.org/2000/svg" width="24" height="24" viewBox="0 0 24 24"><path d="m19.38,10.16c-.49.08-.93.12-1.35.22-2.15.52-3.81,2.37-4.11,4.55-.12.88,0,1.74.19,2.6.35,1.61,1.04,3.07,2.05,4.37.06.07.11.15.19.26-.11.02-.17.03-.24.04-1.89,0-3.78,0-5.67,0-.3,0-.3,0-.3-.31,0-1.25,0-2.5,0-3.75,0-.57-.05-1.13-.22-1.68-.24-.77-.62-1.45-1.27-1.95-1.25-.96-2.89-.76-3.9.46-.59.71-.91,1.53-.96,2.45-.03.55-.04,1.09-.05,1.64,0,.93,0,1.87,0,2.8,0,.33,0,.33-.34.33-.4,0-.81,0-1.21,0-.33,0-.33,0-.33-.34,0-.04,0-.08,0-.12,0-4.33,0-8.65,0-12.98,0-.03,0-.06,0-.09,0-.36,0-.36.37-.36,5.6,0,11.21,0,16.81,0,.36,0,.36,0,.36.37,0,.49,0,.98,0,1.48Zm-12.46.92c.71,0,1.42,0,2.13,0,.15,0,.31-.02.45-.06.44-.13.7-.61.59-1.04-.11-.45-.46-.7-.99-.7-1.45,0-2.89,0-4.34,0-.14,0-.29.02-.42.06-.44.14-.69.61-.57,1.05.11.42.46.68.94.69.74,0,1.48,0,2.21,0Zm7.81,0c.48,0,.9-.4.92-.89.02-.47-.41-.9-.9-.9-.45,0-.87.4-.89.86-.02.48.39.93.87.94Zm-2.72-1.79c-.48,0-.9.41-.91.9-.01.47.42.89.91.9.44,0,.87-.42.88-.87.01-.49-.41-.92-.88-.92Z" fill="#fff"/><path d="m14.74,15.82c-.09-2.22,1.54-4.41,4.04-4.72,2.66-.33,4.76,1.53,5.14,3.8.17,1.01.04,2.01-.25,2.99-.44,1.48-1.2,2.79-2.18,3.97-.54.66-1.16,1.25-1.74,1.88-.05.06-.12.1-.17.15-.14.14-.26.15-.42,0-1.81-1.67-3.32-3.54-4.08-5.94-.22-.7-.36-1.41-.34-2.14Zm4.62-2.86c-1.57.07-2.72,1.18-2.72,2.75,0,1.59,1.18,2.74,2.72,2.74,1.64,0,2.76-1.23,2.74-2.77-.02-1.58-1.2-2.65-2.73-2.71Z" fill="#fff"/><path d="m0,7.4c.02-.26.04-.49.07-.71.23-1.85.46-3.69.69-5.54.04-.3.08-.59.11-.89C.89.06.98,0,1.17,0c1.37,0,2.74,0,4.12,0,.26,0,.28.01.28.28,0,2.29,0,4.58,0,6.86,0,.27-.01.28-.28.28-1.67,0-3.34,0-5.01,0-.07,0-.15-.01-.28-.03Z" fill="#fff"/><path d="m22.14,7.41c-.15,0-.25.02-.36.02-1.61,0-3.22,0-4.84,0-.36,0-.36,0-.36-.37,0-2.23,0-4.46,0-6.69,0-.36,0-.37.36-.37,1.31,0,2.63,0,3.94,0,.36,0,.35,0,.39.37.12,1,.25,2,.38,3,.12.98.24,1.96.37,2.94.03.25.06.49.09.74.01.1.01.21.02.35Z" fill="#fff"/><path d="m7.37,3.68c0-1.12,0-2.23,0-3.35,0-.33,0-.34.34-.34.73,0,1.46,0,2.19,0,.26,0,.28.01.28.28,0,2.29,0,4.58,0,6.86,0,.26-.01.28-.28.28-.74,0-1.48,0-2.22,0-.3,0-.3,0-.31-.31,0-1.14,0-2.29,0-3.43Z" fill="#fff"/><path d="m14.78,3.71c0,1.12,0,2.25,0,3.37,0,.33,0,.34-.34.34-.73,0-1.46,0-2.19,0-.26,0-.28-.01-.28-.28,0-2.29,0-4.58,0-6.86,0-.26.01-.28.28-.28.74,0,1.48,0,2.22,0,.3,0,.31,0,.31.31,0,1.13,0,2.27,0,3.4Z" fill="#fff"/><path d="m8.33,19.76c0,.72,0,1.44,0,2.16,0,.27-.01.28-.27.28-.75,0-1.49,0-2.24,0-.27,0-.28-.01-.28-.27,0-1.42,0-2.84,0-4.26,0-.57.21-1.09.58-1.54.46-.57,1.16-.57,1.63,0,.38.46.57,1,.58,1.59.01.68,0,1.36,0,2.05h0Z" fill="#fff"/><path d="m19.38,14.78c.53,0,.93.43.92.96,0,.53-.41.92-.94.92-.53,0-.94-.42-.94-.95,0-.54.4-.94.95-.93Z" fill="#fff"/></svg>