<?xml version="1.0" encoding="UTF-8"?><svg id="Layer_1" xmlns="http://www.w3.org/2000/svg" width="338.14" height="327.27" viewBox="0 0 338.14 327.27"><path d="m229.17,327.25c-23.38-.74-45.98-5.36-67.91-13.45-28.96-10.68-55.03-26.34-78.98-45.68-14.31-11.55-25.85-25.58-36.32-40.55-14.31-20.45-25.86-42.34-34.02-65.96-5.18-15.01-9-30.35-10.58-46.18C.69,108.74-.1,102.01.01,95.31c.28-16.68,5.94-31.45,16.99-44.05,9.7-11.06,21.64-18.28,36.19-20.91,14.59-2.64,29.78,5.5,35.17,19.34,3.11,8,5.38,16.33,7.96,24.54,3.06,9.75,5.91,19.58,9.11,29.29,3.8,11.51,1.19,21.36-7.17,29.85-5.51,5.6-11.12,11.11-16.66,16.69-3.39,3.42-3.49,4.08-.79,7.97,6.69,9.62,12.97,19.58,20.3,28.69,15.3,19.04,32.88,35.79,53.09,49.65,4.94,3.39,9.94,6.68,14.94,9.97,3.78,2.48,4.55,2.41,7.73-.74,5.58-5.53,11.14-11.09,16.68-16.67,8.56-8.62,18.46-11.04,30.13-7.26,16.13,5.22,32.39,10.06,48.58,15.07,13.92,4.31,22.54,13.47,24.65,28.02.54,3.72.16,7.77-.7,11.46-4.17,18.05-14.41,31.88-30.27,41.38-11.27,6.75-23.58,9.99-36.79,9.65Zm1.21-14.44c1.98-.19,5.46-.43,8.91-.86,20.86-2.61,39.7-20.49,43.22-41.09.31-1.79.23-3.76-.16-5.54-1.6-7.33-6.13-12.09-13.28-14.32-16.66-5.21-33.35-10.31-49.97-15.63-6.22-1.99-11.19-.45-15.62,4.08-5.67,5.79-11.43,11.5-17.19,17.21-7.19,7.11-15.75,8.01-24.09,2.49-12.9-8.53-25.84-16.98-37.49-27.25-10.77-9.5-20.85-19.66-30.35-30.42-9.86-11.17-17.82-23.7-26.06-36.04-5.98-8.95-5.18-17.33,2.42-24.97,5.72-5.75,11.46-11.47,17.19-17.2,4.24-4.24,5.83-9.01,3.79-14.97-2.42-7.07-4.4-14.29-6.62-21.44-3.11-10-6.11-20.04-9.44-29.96-3.12-9.31-12.29-14.3-21.69-11.9-19.2,4.9-31.17,17.47-37.17,35.97-2.53,7.79-2.46,15.84-1.88,24.04,1.48,20.98,6.53,41.06,14.09,60.57,7.88,20.35,18.58,39.19,31.26,56.9,7.55,10.55,15.48,20.87,25.39,29.36,23.29,19.96,49.03,35.95,77.69,47.07,21.08,8.18,42.87,13.03,67.03,13.91Z"/><path d="m160.52,155.5c0-4.37-.08-8.73.03-13.1.06-2.4-.73-4.26-2.3-6.08-9.45-11.01-15.74-23.54-18.26-37.93-3.3-18.8.32-36.31,10.29-52.34,14.41-23.17,35.83-36.71,62.02-42.82,28.21-6.59,55.32-3.15,80.7,10.97,21.77,12.12,36.93,29.88,42.94,54.48,5.31,21.74.87,41.95-11.67,60.16-16.11,23.4-39.24,35.93-66.76,40.77-19.4,3.41-38.5,1.78-57.09-4.86-1.95-.7-3.5-.45-5.27.57-6.92,3.97-13.89,7.87-20.93,11.62-1.7.91-3.73,1.57-5.63,1.63-4.55.14-7.95-3.45-8.13-8.47-.17-4.86-.04-9.73-.04-14.59h.1Zm14.65,4.35c5.81-3.22,11.03-5.86,15.97-8.95,3.75-2.35,7.21-2.51,11.29-.9,17.6,6.95,35.79,8.5,54.34,5.03,20.76-3.88,38.69-13.04,52.15-29.69,12.35-15.27,17.31-32.64,13.16-52.12-4.14-19.45-15.77-33.63-32.22-44.01-19.15-12.08-40.19-16.32-62.63-13.83-22.67,2.51-42.3,11.35-57.49,28.66-13.4,15.27-19.12,33.01-15.17,53.33,2.32,11.94,7.75,22.48,16.14,31.11,4.63,4.76,5.17,9.89,4.68,15.73-.04.5-.21.99-.21,1.48-.02,4.45,0,8.9,0,14.18Z"/><g id="Layer_1-2"><path d="m191.24,39.32c.34-.5.61-1.07.99-1.52.76-.88,1.71-1.3,2.82-1.3h11.58c1.98,0,3.24,1.07,4,3.28,1.1,3.39,2.21,6.78,3.28,10.13.11.38.27.76.42,1.1.42.76,1.03,1.18,1.91,1.26h61.61c.5,0,1.03,0,1.52.11,2.51.5,3.89,2.82,3.12,5.3-.8,2.59-1.68,5.18-2.51,7.77-2.55,7.81-5.07,15.66-7.62,23.47-.76,2.36-1.94,3.24-4.34,3.24h-39.82c-.53,0-1.1,0-1.6.15-.95.19-1.56.8-1.83,1.75-.3,1.14-.57,2.29-.8,3.43-.27,1.26.5,2.29,1.75,2.4h45.68c.65,0,1.33.04,1.98.23,1.64.42,2.86,2.1,2.9,3.85,0,1.75-1.22,3.47-2.93,3.92-.53.15-1.07.19-1.6.19h-45.49c-5.87,0-10.44-4.8-10.21-10.78.04-1.3.34-2.67.76-3.92,1.1-3.47.8-6.74-.34-10.17-4.04-12.04-7.89-24.16-11.81-36.27-.65-1.94-1.37-2.51-3.39-2.51-1.79,0-3.62-.08-5.41,0-2.25.3-3.77-.57-4.61-2.67v-2.44Z"/><path d="m220.54,127.94c-1.56-.5-3.05-1.18-4.15-2.48-2.06-2.4-2.63-5.14-1.6-8.12.99-2.93,3.12-4.69,6.13-5.26,3.92-.72,8.88,2.06,9.03,7.89.08,3.62-2.21,6.44-5.03,7.54-.38.15-.72.3-1.1.42h-3.28Z"/><path d="m266.87,127.94c-1.56-.5-3.05-1.18-4.15-2.48-2.06-2.4-2.63-5.14-1.6-8.12.99-2.93,3.12-4.69,6.13-5.26,3.92-.72,8.88,2.06,9.03,7.89.08,3.62-2.21,6.44-5.03,7.54-.38.15-.72.3-1.1.42h-3.28Z"/></g></svg>