<?xml version="1.0" encoding="UTF-8"?><svg id="Layer_1" xmlns="http://www.w3.org/2000/svg" width="22.49" height="22.49" viewBox="0 0 22.49 22.49"><path d="m0,11.22C0,5.02,5.08-.02,11.29,0c6.16.02,11.22,5.08,11.2,11.27-.02,6.18-5.07,11.3-11.39,11.22C4.95,22.42-.03,17.38,0,11.22ZM11.23,1.53C5.84,1.59,1.55,5.83,1.54,11.22c-.02,5.42,4.3,9.72,9.68,9.74,5.43.01,9.75-4.33,9.73-9.74-.02-5.38-4.31-9.65-9.72-9.69Z"/><path d="m10.2,11.3c-.12-.12-.18-.19-.24-.24-1.22-1.22-2.43-2.44-3.65-3.66-.23-.23-.34-.49-.26-.8.13-.51.72-.73,1.16-.44.09.06.17.14.24.22,1.19,1.2,2.39,2.4,3.58,3.59.06.06.1.14.17.22.1-.09.16-.15.22-.21,1.23-1.23,2.47-2.47,3.7-3.71.22-.22.47-.33.78-.26.54.12.76.76.43,1.2-.06.07-.13.14-.19.2-1.21,1.21-2.41,2.41-3.62,3.62-.06.06-.13.11-.22.18.08.09.13.15.19.21,1.22,1.22,2.43,2.44,3.65,3.65.17.17.3.36.29.61,0,.33-.16.57-.46.7-.29.13-.56.08-.81-.13-.05-.05-.1-.1-.15-.15-1.2-1.2-2.39-2.39-3.59-3.59-.06-.06-.1-.14-.17-.23-.1.1-.17.15-.22.21-1.25,1.25-2.51,2.5-3.76,3.75-.23.23-.5.35-.82.24-.52-.17-.71-.78-.36-1.21.04-.05.1-.1.14-.15,1.24-1.23,2.47-2.47,3.71-3.7.06-.06.15-.09.24-.15Z"/></svg>