<?xml version="1.0" encoding="UTF-8"?><svg id="Layer_1" xmlns="http://www.w3.org/2000/svg" width="17.02" height="20.92" viewBox="0 0 17.02 20.92"><path d="m8.51,11.66c2.03,0,4.07,0,6.1,0,.35,0,.69.03,1.01.17.83.37,1.32,1.02,1.38,1.93.1,1.42-.15,2.77-.91,3.99-1.08,1.75-2.65,2.8-4.69,3.09-.25.04-.5.06-.74.06-1.49,0-2.98.03-4.47-.01-1.82-.06-3.34-.82-4.55-2.17C.58,17.55.05,16.16,0,14.59c-.01-.41-.01-.83.08-1.23.22-.99,1.08-1.66,2.09-1.69.31,0,.62,0,.94,0,1.8,0,3.6,0,5.4,0Z"/><path d="m8.5,0c2.74,0,4.99,2.23,5,4.97.01,2.75-2.24,5.01-4.99,5.01-2.75,0-5-2.25-5-5C3.51,2.24,5.75,0,8.5,0Z"/></svg>