<?xml version="1.0" encoding="UTF-8"?>
<svg id="Layer_2" data-name="Layer 2" xmlns="http://www.w3.org/2000/svg" viewBox="0 0 27.38 19.76">
  <defs>
    <style>
      .cls-1 {
        fill: #fff;
      }

      .cls-2 {
        fill: #14426f;
      }

      .cls-3 {
        fill: #231f20;
      }
    </style>
  </defs>
  <g id="Layer_1-2" data-name="Layer 1">
    <g>
      <path d="m8.91,13.11c-.34,0-.73,0-1.12,0-.48,0-.96,0-1.44,0-.04,0-.08,0-.13,0-.18-.02-.28-.11-.27-.25,0-.13.12-.21.3-.21.96,0,1.91,0,2.87,0,.14,0,.23-.03.3-.17.07-.15.2-.21.37-.21,2.11,0,4.22,0,6.33,0,.03,0,.06,0,.06,0-.23.46-.48.91-.69,1.38-.12.26-.21.54-.25.82-.12.82.48,1.57,1.3,1.66.11.01.22.02.34.03s.21-.06.24-.16l1.08-3.86c.03-.12-.04-.24-.16-.28l-1.9-.53c.05.13.12.25.15.38.03.12-.02.18-.17.18-1.62,0-3.24,0-4.85,0-.56,0-1.12,0-1.68,0-.36,0-.43-.06-.5-.42,0-.02,0-.05-.01-.07-.05-.44.05-.54.48-.54,1.55,0,3.1,0,4.65,0,.06,0,.13,0,.25,0-.07-.04-.08-.05-.1-.06-.5-.24-.65-.57-.58-1.12.15-1.36.74-2.55,1.43-3.7.33-.55.7-1.07,1.11-1.57.36-.44.83-.74,1.41-.82.64-.09,1.18.06,1.42.64.1.23.14.49.2.74.14.54.3,1.07.42,1.61.06.28.2.39.47.42.41.05.81.13,1.22.2.09-.31.12-.33.45-.38.44-.06.89-.12,1.33-.19.41-.06.71.22.66.64s-.11.85-.17,1.27c-.03.2-.14.27-.34.24-.25-.04-.49-.08-.76-.13l1.53,4.61c.03.1.13.16.23.15,1.07-.07,2.1-.06,2.93.77.11.11.07.29-.07.36l-6.56,3.18c.02-.17.03-.31.04-.46.02-.21-.01-.24-.22-.24-4.9,0-9.79,0-14.69,0-.34,0-.37-.04-.28-.36.05-.16.11-.31.17-.49-.07,0-.13,0-.2,0-.84,0-1.67,0-2.51,0-.09,0-.19-.04-.25-.09-.04-.04-.05-.16-.02-.21.04-.06.14-.12.22-.12.47-.01.94,0,1.41,0,.48,0,.96,0,1.44,0,.1,0,.16-.02.21-.12.09-.17.2-.33.31-.51-.28,0-.54,0-.8,0-1.72,0-3.44,0-5.16,0-.04,0-.08,0-.13,0-.14,0-.25-.07-.24-.23,0-.15.12-.21.26-.21.46,0,.91,0,1.37,0,1.65,0,3.31-.01,4.96-.02.07,0,.15-.04.2-.09.14-.13.27-.27.44-.45-.19,0-.36,0-.53,0-1.18,0-2.37,0-3.55-.01-.14,0-.29,0-.31-.19-.02-.16.06-.26.23-.27.16,0,.31,0,.47,0,1.4,0,2.79,0,4.19,0,.09,0,.22-.03.29-.07.31-.15.61-.31.9-.45Zm9.24-6.55l-1.37,2.5c-.07.12,0,.28.13.32.52.16,1.02.31,1.52.46.41.12.82.25,1.2.45.61.32.89,1.06.63,1.7-.44,1.11-.89,2.21-1.33,3.32-.11.28-.22.57-.34.88.19-.02.35-.02.5-.04,1.06-.18,1.77-.8,2.18-1.77.46-1.08.6-2.22.6-3.37,0-.65-.06-1.3-.12-1.95-.04-.44-.39-.78-.83-.81-.51-.03-1.01-.07-1.52-.08-.29,0-.49-.14-.62-.39-.17-.33-.33-.67-.49-1-.03-.06-.07-.11-.14-.21Z"/>
      <path class="cls-3" d="m13.69,5.2c-.02.31-.07.62-.12.93-.12.75-.23,1.51-.35,2.26-.09.54-.17,1.07-.26,1.6-.06.36-.26.51-.66.51h-3.95c-1.73,0-3.46,0-5.2-.01h-.21c-.12-.01-.18-.08-.19-.2-.01-.13.04-.22.16-.24.09-.02.17-.02.25-.02,1.13,0,2.26,0,3.4,0,.04,0,.09,0,.15-.01.04-.22.07-.42.11-.65h-2.06c-.14,0-.26-.04-.27-.21-.01-.17.11-.23.25-.24.42-.01.84-.01,1.26-.01h.89c.03-.15.06-.31.09-.5h-.92c-.09,0-.17,0-.25,0-.14,0-.24-.07-.24-.22.01-.15.09-.22.25-.22h1.22c.08-.47.15-.94.22-1.4.08-.49.15-.99.23-1.47.06-.34.25-.47.63-.47h4.85c.08,0,.15.01.23.01.34.04.52.24.49.58Z"/>
      <path class="cls-2" d="m25.21,19.61c-.86.26-1.7.22-2.45-.34-.51-.37-.78-.89-.91-1.49-.03-.14.07-.32.2-.39.34-.17.69-.33,1.04-.49,0,.19-.02.37.01.54.09.6.48.98,1.09,1.07.79.12,1.56-.3,1.76-1.1.16-.63-.01-1.17-.54-1.61.43-.2.84-.39,1.27-.6.29.33.47.71.54,1.13.23,1.36-.55,2.85-2.01,3.28Z"/>
      <path class="cls-2" d="m20.71,3.64s.07.06.12.1c-.03.02-.04.04-.06.05q-.5.35-1.04.06c-.6-.32-1.21-.64-1.82-.94-.26-.13-.35-.32-.35-.59,0-.95.34-1.71,1.24-2.13.82-.38,1.95-.2,2.46.63.2.32.32.67.3,1.07-.37-.14-.73-.27-1.09-.41-.14-.05-.27-.1-.41-.15-.14-.05-.25-.01-.32.14-.19.41-.23,1.13.21,1.54.24.22.51.42.76.63Z"/>
      <path class="cls-2" d="m11.95,17.32c-.05.16-.08.32-.14.46-.44.99-1.17,1.68-2.24,1.91-.89.19-1.73.02-2.41-.65-.46-.46-.63-1.04-.64-1.71h1.27c.03.11.05.22.08.33.23.69.9,1.02,1.65.81.54-.14.87-.51,1.07-1.01.05-.11.1-.15.22-.15.37.01.73.01,1.14.01Z"/>
      <path class="cls-1" d="m18.16,6.56c.07.1.11.15.14.21.17.33.33.67.49,1,.13.25.32.38.62.39.51.02,1.01.05,1.52.08.44.02.79.37.83.81.06.65.12,1.3.12,1.95,0,1.16-.14,2.29-.6,3.37-.41.98-1.13,1.59-2.18,1.77-.15.03-.31.03-.5.04.12-.31.23-.59.34-.88.44-1.11.89-2.21,1.33-3.32.26-.64-.02-1.37-.63-1.7-.38-.2-.79-.33-1.2-.45-.5-.15-1.01-.3-1.52-.46-.14-.04-.2-.2-.13-.32l1.37-2.5Z"/>
    </g>
  </g>
</svg>