<?xml version="1.0" encoding="UTF-8"?><svg id="Layer_1" xmlns="http://www.w3.org/2000/svg" width="24" height="24" viewBox="0 0 24 24"><path d="m11.99,24c-2.9,0-5.8,0-8.7,0-1.55,0-2.87-1.08-3.22-2.59-.42-1.88.94-3.78,2.85-3.97.24-.02.49-.04.74-.04,5.64,0,11.29,0,16.93,0,1.15,0,2.09.45,2.79,1.39,1.32,1.78.44,4.42-1.69,5.05-.35.1-.72.15-1.08.15-2.87.01-5.75,0-8.62,0Zm.01-4.34c-2.15,0-4.3,0-6.45,0-.77,0-1.53,0-2.3,0-.55,0-.98.42-1.02.98-.04.52.33.99.81,1.09.16.03.32.05.48.05,5.65,0,11.31,0,16.96,0,.08,0,.15,0,.23,0,.58-.04,1.01-.42,1.06-.99.04-.47-.24-.94-.74-1.09-.15-.04-.32-.04-.48-.04-2.85,0-5.7,0-8.54,0Z"/><path d="m12.01,0C14.91,0,17.81,0,20.71,0c1.38,0,2.6.86,3.09,2.15.72,1.92-.53,4.08-2.56,4.39-.21.03-.42.05-.63.05-5.73,0-11.46,0-17.19,0-1.54,0-2.83-.93-3.26-2.34C-.44,2.34.82.34,2.81.05c.2-.03.41-.04.61-.04C6.28,0,9.15,0,12.01,0Zm0,4.34c2.81,0,5.63,0,8.44,0,.11,0,.22,0,.33,0,.43-.03.74-.25.9-.64.17-.39.1-.77-.18-1.09-.26-.31-.6-.38-.99-.38-5.68,0-11.36,0-17.04,0-.07,0-.14,0-.2,0-.58.04-.99.43-1.05,1-.04.4.2.92.76,1.08.15.04.32.04.48.04,2.85,0,5.7,0,8.54,0Z"/><path d="m12,8.72c2.9,0,5.8.02,8.7,0,1.44-.01,2.88,1.03,3.22,2.58.4,1.78-.79,3.61-2.59,3.93-.19.03-.39.05-.58.05-5.83,0-11.67,0-17.5,0-1.61,0-2.96-1.2-3.21-2.8-.27-1.68.89-3.47,2.83-3.75.17-.02.34-.02.51-.02,2.87,0,5.75,0,8.62,0Zm0,4.34c2.47,0,4.93,0,7.4,0,.45,0,.9,0,1.35,0,.81-.02,1.29-.93.85-1.62-.24-.38-.59-.5-1.02-.5-5.72,0-11.44,0-17.17,0-.05,0-.1,0-.15,0-.42.02-.73.21-.92.59-.18.36-.15.72.07,1.06.23.34.56.47.96.47,2.87,0,5.75,0,8.62,0Z"/></svg>